<?xml version="1.0" standalone="no"?><!DOCTYPE svg PUBLIC "-//W3C//DTD SVG 1.1//EN" "http://www.w3.org/Graphics/SVG/1.1/DTD/svg11.dtd"><svg t="1605188697665" class="icon" viewBox="0 0 1024 1024" version="1.1" xmlns="http://www.w3.org/2000/svg" p-id="11572" xmlns:xlink="http://www.w3.org/1999/xlink" width="200" height="200"><defs><style type="text/css"></style></defs><path d="M512 64c247.424 0 448 200.576 448 448S759.424 960 512 960 64 759.424 64 512 264.576 64 512 64z m0 81.455c-202.437 0-366.545 164.108-366.545 366.545S309.563 878.545 512 878.545 878.545 714.437 878.545 512 714.437 145.455 512 145.455z m0 122.181c134.958 0 244.364 109.406 244.364 244.364S646.958 756.364 512 756.364 267.636 646.958 267.636 512 377.042 267.636 512 267.636z" p-id="11573"></path></svg>